<svg width="132" height="40" viewBox="0 0 132 40" fill="none"
    xmlns="http://www.w3.org/2000/svg">
    <path d="M19.429 16.292C19.429 17.5953 19.0917 18.7913 18.417 19.88C17.7423 20.9687 16.761 21.858 15.473 22.548C14.185 23.238 12.6517 23.6443 10.873 23.767L9.884 29.31C9.50067 31.4413 8.458 32.507 6.756 32.507C5.82067 32.507 4.95433 32.231 4.157 31.679C3.375 31.127 2.74633 30.2837 2.271 29.149C1.79567 28.0143 1.558 26.619 1.558 24.963C1.558 21.8503 2.05633 19.213 3.053 17.051C4.065 14.8737 5.41433 13.2483 7.101 12.175C8.803 11.0863 10.6737 10.542 12.713 10.542C14.1543 10.542 15.3733 10.795 16.37 11.301C17.382 11.807 18.141 12.497 18.647 13.371C19.1683 14.2297 19.429 15.2033 19.429 16.292ZM11.287 21.398C14.4303 20.9993 16.002 19.3663 16.002 16.499C16.002 15.487 15.6647 14.6667 14.99 14.038C14.3307 13.394 13.3033 13.072 11.908 13.072C10.3287 13.072 8.94867 13.5703 7.768 14.567C6.60267 15.5637 5.698 16.9513 5.054 18.73C4.42533 20.4933 4.111 22.5097 4.111 24.779C4.111 25.7297 4.203 26.573 4.387 27.309C4.58633 28.045 4.83167 28.62 5.123 29.034C5.42967 29.4327 5.721 29.632 5.997 29.632C6.38033 29.632 6.67167 29.103 6.871 28.045L7.63 23.698C7.032 23.606 6.77133 23.5677 6.848 23.583C6.388 23.5063 6.089 23.3683 5.951 23.169C5.813 22.9543 5.744 22.686 5.744 22.364C5.744 22.0267 5.836 21.7583 6.02 21.559C6.21933 21.3597 6.48767 21.26 6.825 21.26C6.97833 21.26 7.09333 21.2677 7.17 21.283C7.538 21.3443 7.82167 21.3827 8.021 21.398C8.22033 20.202 8.504 18.5997 8.872 16.591C8.964 16.0697 9.171 15.7017 9.493 15.487C9.83033 15.257 10.2213 15.142 10.666 15.142C11.172 15.142 11.5323 15.2417 11.747 15.441C11.977 15.625 12.092 15.924 12.092 16.338C12.092 16.5833 12.0767 16.7827 12.046 16.936L11.287 21.398ZM21.7547 17.764C21.1107 17.764 20.6277 17.6183 20.3057 17.327C19.9837 17.0203 19.8227 16.5987 19.8227 16.062C19.8227 15.5253 20.0297 15.0807 20.4437 14.728C20.873 14.36 21.402 14.176 22.0307 14.176C22.598 14.176 23.058 14.314 23.4107 14.59C23.7634 14.866 23.9397 15.257 23.9397 15.763C23.9397 16.3763 23.7404 16.867 23.3417 17.235C22.943 17.5877 22.414 17.764 21.7547 17.764ZM21.5707 30.115C20.574 30.115 19.8457 29.7623 19.3857 29.057C18.941 28.3517 18.7187 27.4163 18.7187 26.251C18.7187 25.561 18.803 24.6793 18.9717 23.606C19.1557 22.5173 19.3857 21.5053 19.6617 20.57C19.7997 20.0793 19.9837 19.742 20.2137 19.558C20.4437 19.374 20.8117 19.282 21.3177 19.282C22.0997 19.282 22.4907 19.5427 22.4907 20.064C22.4907 20.4473 22.345 21.3367 22.0537 22.732C21.6857 24.4187 21.5017 25.561 21.5017 26.159C21.5017 26.619 21.563 26.9717 21.6857 27.217C21.8084 27.4623 22.0154 27.585 22.3067 27.585C22.5827 27.585 22.9277 27.3933 23.3417 27.01C23.7557 26.6267 24.3077 26.021 24.9977 25.193C25.1817 24.9783 25.3887 24.871 25.6187 24.871C25.818 24.871 25.9714 24.963 26.0787 25.147C26.2014 25.331 26.2627 25.584 26.2627 25.906C26.2627 26.5193 26.117 26.9947 25.8257 27.332C24.3077 29.1873 22.8894 30.115 21.5707 30.115ZM33.7169 30.115C31.8922 30.115 30.3052 29.7853 28.9559 29.126C27.6065 28.4513 26.5715 27.5007 25.8509 26.274C25.1302 25.0473 24.7699 23.6213 24.7699 21.996C24.7699 19.742 25.1915 17.741 26.0349 15.993C26.8935 14.245 28.0512 12.8957 29.5079 11.945C30.9645 10.979 32.5822 10.496 34.3609 10.496C36.0169 10.496 37.2742 10.9253 38.1329 11.784C38.9915 12.6273 39.4209 13.7467 39.4209 15.142C39.4209 16.0773 39.2522 16.8287 38.9149 17.396C38.5929 17.9633 38.1252 18.247 37.5119 18.247C37.0825 18.247 36.7452 18.1473 36.4999 17.948C36.2545 17.7487 36.1319 17.4573 36.1319 17.074C36.1319 16.936 36.1625 16.683 36.2239 16.315C36.3159 15.855 36.3619 15.487 36.3619 15.211C36.3619 13.8157 35.6182 13.118 34.1309 13.118C33.1189 13.118 32.1529 13.4477 31.2329 14.107C30.3129 14.7663 29.5692 15.74 29.0019 17.028C28.4345 18.3007 28.1509 19.8187 28.1509 21.582C28.1509 23.422 28.6645 24.848 29.6919 25.86C30.7192 26.8567 32.2372 27.355 34.2459 27.355C35.2425 27.355 36.2469 27.2323 37.2589 26.987C38.2862 26.7263 39.4209 26.3353 40.6629 25.814C40.8929 25.722 41.0845 25.676 41.2379 25.676C41.4832 25.676 41.6672 25.768 41.7899 25.952C41.9125 26.136 41.9739 26.3737 41.9739 26.665C41.9739 27.6003 41.4679 28.2903 40.4559 28.735C39.3672 29.2103 38.2325 29.563 37.0519 29.793C35.8865 30.0077 34.7749 30.115 33.7169 30.115ZM42.9984 30.115C42.0478 30.115 41.2888 29.77 40.7214 29.08C40.1541 28.39 39.8704 27.4853 39.8704 26.366C39.8704 25.1393 40.1541 23.9817 40.7214 22.893C41.2888 21.789 42.0401 20.9073 42.9754 20.248C43.9261 19.5733 44.9304 19.236 45.9884 19.236C46.3258 19.236 46.5481 19.305 46.6554 19.443C46.7781 19.5657 46.8778 19.7957 46.9544 20.133C47.2764 20.0717 47.6138 20.041 47.9664 20.041C48.7178 20.041 49.0934 20.3093 49.0934 20.846C49.0934 21.168 48.9784 21.9347 48.7484 23.146C48.3958 24.9093 48.2194 26.136 48.2194 26.826C48.2194 27.056 48.2731 27.24 48.3804 27.378C48.5031 27.516 48.6564 27.585 48.8404 27.585C49.1318 27.585 49.4844 27.401 49.8984 27.033C50.3124 26.6497 50.8721 26.0363 51.5774 25.193C51.7614 24.9783 51.9684 24.871 52.1984 24.871C52.3978 24.871 52.5511 24.963 52.6584 25.147C52.7811 25.331 52.8424 25.584 52.8424 25.906C52.8424 26.5193 52.6968 26.9947 52.4054 27.332C51.7768 28.114 51.1098 28.7733 50.4044 29.31C49.6991 29.8467 49.0168 30.115 48.3574 30.115C47.8514 30.115 47.3838 29.9463 46.9544 29.609C46.5404 29.2563 46.2261 28.781 46.0114 28.183C45.2141 29.471 44.2098 30.115 42.9984 30.115ZM43.8264 27.792C44.1638 27.792 44.4858 27.5927 44.7924 27.194C45.0991 26.7953 45.3214 26.2663 45.4594 25.607L46.3104 21.375C45.6664 21.3903 45.0684 21.6357 44.5164 22.111C43.9798 22.571 43.5504 23.1843 43.2284 23.951C42.9064 24.7177 42.7454 25.5303 42.7454 26.389C42.7454 26.8643 42.8374 27.217 43.0214 27.447C43.2208 27.677 43.4891 27.792 43.8264 27.792ZM55.2511 30.621C54.4538 30.621 53.8405 30.437 53.4111 30.069C52.9971 29.701 52.7901 29.287 52.7901 28.827C52.7901 28.4283 52.9358 28.0833 53.2271 27.792C53.5185 27.5007 53.9478 27.355 54.5151 27.355C54.7145 27.355 54.9445 27.378 55.2051 27.424C55.4811 27.4547 55.6881 27.4777 55.8261 27.493C55.8108 27.0943 55.7188 26.7187 55.5501 26.366C55.3968 26.0133 55.1975 25.676 54.9521 25.354C54.7068 25.0167 54.4768 24.7253 54.2621 24.48C53.7868 25.3847 53.3115 26.136 52.8361 26.734C52.3761 27.332 51.8701 27.8993 51.3181 28.436C51.0421 28.712 50.7508 28.85 50.4441 28.85C50.1988 28.85 49.9995 28.7657 49.8461 28.597C49.6928 28.413 49.6161 28.1907 49.6161 27.93C49.6161 27.6233 49.7235 27.3397 49.9381 27.079L50.2371 26.711C51.0805 25.6683 51.7168 24.8097 52.1461 24.135C52.4068 23.6903 52.7135 23.1 53.0661 22.364C53.4188 21.6127 53.7638 20.8383 54.1011 20.041C54.3925 19.3663 54.9981 19.029 55.9181 19.029C56.3475 19.029 56.6465 19.0673 56.8151 19.144C56.9838 19.2207 57.0681 19.3433 57.0681 19.512C57.0681 19.604 57.0375 19.7497 56.9761 19.949C56.9148 20.1483 56.8305 20.3477 56.7231 20.547C56.4471 21.099 56.3091 21.5667 56.3091 21.95C56.3091 22.18 56.3858 22.433 56.5391 22.709C56.7078 22.985 56.9608 23.33 57.2981 23.744C57.7888 24.388 58.1568 24.94 58.4021 25.4C58.6628 25.8447 58.7931 26.3353 58.7931 26.872C58.7931 27.0253 58.7778 27.24 58.7471 27.516C59.4985 27.2247 60.3801 26.4503 61.3921 25.193C61.5761 24.9783 61.7831 24.871 62.0131 24.871C62.2125 24.871 62.3658 24.963 62.4731 25.147C62.5958 25.331 62.6571 25.584 62.6571 25.906C62.6571 26.4887 62.5115 26.964 62.2201 27.332C61.4535 28.2827 60.7175 28.9343 60.0121 29.287C59.3221 29.6243 58.4635 29.8083 57.4361 29.839C56.8228 30.3603 56.0945 30.621 55.2511 30.621ZM68.9306 19.282C69.4212 19.282 69.7892 19.4123 70.0346 19.673C70.2952 19.9183 70.4256 20.2863 70.4256 20.777C70.4256 21.1757 70.3412 21.927 70.1726 23.031C70.0192 23.9663 69.8966 24.8557 69.8046 25.699C69.7126 26.527 69.6666 27.4547 69.6666 28.482C69.6666 29.0647 69.5439 29.4863 69.2986 29.747C69.0686 29.9923 68.6852 30.115 68.1486 30.115C67.6426 30.115 67.2746 29.9847 67.0446 29.724C66.8146 29.4633 66.6996 29.0723 66.6996 28.551C66.6996 27.9377 66.8069 26.9257 67.0216 25.515C67.2056 24.2883 67.2976 23.5063 67.2976 23.169C67.2976 22.9237 67.2132 22.801 67.0446 22.801C66.8452 22.801 66.5616 23.0617 66.1936 23.583C65.8256 24.089 65.4576 24.7637 65.0896 25.607C64.7216 26.4503 64.4226 27.3397 64.1926 28.275C64.0239 28.9957 63.8246 29.4863 63.5946 29.747C63.3799 29.9923 63.0349 30.115 62.5596 30.115C62.0842 30.115 61.7316 29.9463 61.5016 29.609C61.2869 29.2563 61.1412 28.7197 61.0646 27.999C60.9879 27.2783 60.9496 26.2203 60.9496 24.825C60.9496 22.4637 61.1872 20.0027 61.6626 17.442C62.1532 14.8813 62.8662 12.7347 63.8016 11.002C64.7522 9.254 65.8869 8.38 67.2056 8.38C67.9109 8.38 68.4782 8.68667 68.9076 9.3C69.3522 9.898 69.5746 10.68 69.5746 11.646C69.5746 13.1947 69.1222 14.8047 68.2176 16.476C67.3129 18.132 65.8409 20.0717 63.8016 22.295C63.7556 23.0923 63.7326 23.9127 63.7326 24.756C64.2386 23.4527 64.7982 22.3947 65.4116 21.582C66.0402 20.754 66.6536 20.1637 67.2516 19.811C67.8649 19.4583 68.4246 19.282 68.9306 19.282ZM66.7226 10.657C66.4466 10.657 66.1399 11.0557 65.8026 11.853C65.4652 12.635 65.1356 13.7007 64.8136 15.05C64.5069 16.384 64.2539 17.8407 64.0546 19.42C65.0052 18.3007 65.7872 17.0817 66.4006 15.763C67.0292 14.4443 67.3436 13.2483 67.3436 12.175C67.3436 11.6843 67.2899 11.3087 67.1826 11.048C67.0752 10.7873 66.9219 10.657 66.7226 10.657Z" fill="white"/>
    <circle cx="80.5" cy="26" r="5" fill="white"/>
    <path d="M109.33 15.5L107.06 13.23C107.13 12.81 107.24 12.42 107.38 12.08C107.476 11.8523 107.514 11.6044 107.491 11.3583C107.468 11.1123 107.385 10.8758 107.248 10.6698C107.111 10.4639 106.926 10.295 106.708 10.1781C106.49 10.0612 106.247 10.0001 106 10C104.36 10 102.91 10.79 102 12H97C93.96 12 91.5 14.46 91.5 17.5C91.5 20.54 94 29 94 29H99.5V27H101.5V29H107L108.68 23.41L111.5 22.47V15.5H109.33ZM102.5 17H97.5V15H102.5V17ZM105.5 19C104.95 19 104.5 18.55 104.5 18C104.5 17.45 104.95 17 105.5 17C106.05 17 106.5 17.45 106.5 18C106.5 18.55 106.05 19 105.5 19Z" fill="#F8F8F8"/>
</svg>
    