<svg width="615" height="607" viewBox="0 0 615 607" fill="none" xmlns="http://www.w3.org/2000/svg">
    <g clip-path="url(#clip0_1535_182)">
    <mask id="mask0_1535_182" style="mask-type:alpha" maskUnits="userSpaceOnUse" x="435" y="15" width="233" height="624">
    <rect x="435" y="15" width="233" height="624" fill="#D9D9D9"/>
    </mask>
    <g mask="url(#mask0_1535_182)">
    <mask id="mask1_1535_182" style="mask-type:alpha" maskUnits="userSpaceOnUse" x="0" y="13" width="600" height="213">
    <rect y="13" width="600" height="213" fill="#D9D9D9"/>
    </mask>
    <g mask="url(#mask1_1535_182)">
    </g>
    <mask id="mask2_1535_182" style="mask-type:alpha" maskUnits="userSpaceOnUse" x="0" y="13" width="600" height="164">
    <rect y="13" width="600" height="164" fill="#D9D9D9"/>
    </mask>
    <g mask="url(#mask2_1535_182)">
    <rect x="25" y="43" width="557" height="539" rx="63" stroke="#5D24FF" stroke-width="22"/>
    </g>
    <mask id="mask3_1535_182" style="mask-type:alpha" maskUnits="userSpaceOnUse" x="0" y="13" width="600" height="213">
    <rect y="13" width="600" height="213" fill="#D9D9D9"/>
    </mask>
    <g mask="url(#mask3_1535_182)">
    </g>
    <mask id="mask4_1535_182" style="mask-type:alpha" maskUnits="userSpaceOnUse" x="15" y="459" width="600" height="164">
    <rect x="15" y="459" width="600" height="164" fill="#D9D9D9"/>
    </mask>
    <g mask="url(#mask4_1535_182)">
    <rect x="25" y="43" width="557" height="539" rx="63" stroke="#5D24FF" stroke-width="22"/>
    </g>
    </g>
    <mask id="mask5_1535_182" style="mask-type:alpha" maskUnits="userSpaceOnUse" x="-130" y="0" width="285" height="624">
    <rect x="-130" width="285" height="624" fill="#D9D9D9"/>
    </mask>
    <g mask="url(#mask5_1535_182)">
    <mask id="mask6_1535_182" style="mask-type:alpha" maskUnits="userSpaceOnUse" x="0" y="13" width="600" height="213">
    <rect y="13" width="600" height="213" fill="#D9D9D9"/>
    </mask>
    <g mask="url(#mask6_1535_182)">
    </g>
    <mask id="mask7_1535_182" style="mask-type:alpha" maskUnits="userSpaceOnUse" x="0" y="13" width="600" height="164">
    <rect y="13" width="600" height="164" fill="#D9D9D9"/>
    </mask>
    <g mask="url(#mask7_1535_182)">
    <rect x="25" y="43" width="557" height="539" rx="63" stroke="#5D24FF" stroke-width="22"/>
    </g>
    <mask id="mask8_1535_182" style="mask-type:alpha" maskUnits="userSpaceOnUse" x="0" y="13" width="600" height="213">
    <rect y="13" width="600" height="213" fill="#D9D9D9"/>
    </mask>
    <g mask="url(#mask8_1535_182)">
    </g>
    <mask id="mask9_1535_182" style="mask-type:alpha" maskUnits="userSpaceOnUse" x="15" y="459" width="600" height="164">
    <rect x="15" y="459" width="600" height="164" fill="#D9D9D9"/>
    </mask>
    <g mask="url(#mask9_1535_182)">
    <rect x="25" y="43" width="557" height="539" rx="63" stroke="#5D24FF" stroke-width="22"/>
    </g>
    </g>
    </g>
    <defs>
    <clipPath id="clip0_1535_182">
    <rect width="615" height="607" fill="white"/>
    </clipPath>
    </defs>
    </svg>
    