<svg width="33" height="28" viewBox="0 0 33 28" fill="none"
    xmlns="http://www.w3.org/2000/svg">
    <path d="M12.56 18.7013C12.7572 18.8406 12.9829 18.9343 13.2208 18.9755C13.4587 19.0168 13.7028 19.0046 13.9354 18.9399C14.168 18.8752 14.3833 18.7596 14.5657 18.6014C14.7481 18.4432 14.893 18.2464 14.99 18.0253L15.76 15.6853C15.9475 15.1225 16.2634 14.611 16.6827 14.1913C17.102 13.7716 17.6133 13.4553 18.176 13.2673L20.414 12.5403C20.7318 12.4291 21.0067 12.221 21.2 11.9453C21.3489 11.736 21.4459 11.4942 21.483 11.24C21.52 10.9858 21.4961 10.7265 21.4132 10.4833C21.3302 10.2402 21.1907 10.0203 21.006 9.84169C20.8213 9.66312 20.5968 9.53103 20.351 9.45633L18.136 8.73633C17.5729 8.54953 17.061 8.23412 16.6409 7.81511C16.2209 7.39609 15.9042 6.885 15.716 6.32233L14.989 4.08533C14.8771 3.76844 14.6695 3.49414 14.395 3.30033C14.1187 3.10983 13.7911 3.00781 13.4555 3.00781C13.1199 3.00781 12.7923 3.10983 12.516 3.30033C12.237 3.4974 12.0271 3.77729 11.916 4.10033L11.18 6.36533C10.9924 6.9135 10.6826 7.41178 10.2738 7.8224C9.86512 8.23303 9.36829 8.54522 8.821 8.73533L6.581 9.46133C6.26226 9.574 5.98656 9.78322 5.79227 10.0599C5.59798 10.3365 5.49475 10.6669 5.49695 11.0049C5.49915 11.343 5.60667 11.672 5.80454 11.9461C6.00242 12.2202 6.28082 12.4258 6.601 12.5343L8.817 13.2543C9.53556 13.4952 10.1672 13.9425 10.633 14.5403C10.899 14.8833 11.104 15.2683 11.239 15.6803L11.967 17.9143C12.079 18.2323 12.287 18.5073 12.562 18.7013M22.306 24.7813C22.5095 24.9252 22.7528 25.002 23.002 25.0013C23.2495 25.0021 23.4912 24.9263 23.694 24.7843C23.9023 24.6364 24.0584 24.4264 24.14 24.1843L24.512 23.0413C24.5906 22.804 24.7235 22.5882 24.9 22.4112C25.0765 22.2341 25.2919 22.1006 25.529 22.0213L26.695 21.6433C26.9299 21.5594 27.1332 21.4051 27.2773 21.2015C27.4213 20.9979 27.4991 20.7548 27.5 20.5053C27.5 20.2493 27.4181 19.9999 27.2662 19.7937C27.1144 19.5875 26.9005 19.4353 26.656 19.3593L25.512 18.9893C25.2745 18.9106 25.0587 18.7776 24.8817 18.6009C24.7046 18.4242 24.5712 18.2086 24.492 17.9713L24.112 16.8083C24.03 16.571 23.8757 16.3653 23.6707 16.2203C23.4657 16.0753 23.2204 15.9982 22.9693 16C22.7182 16.0017 22.4739 16.0822 22.271 16.2301C22.068 16.378 21.9166 16.5858 21.838 16.8243L21.464 17.9703C21.3874 18.2045 21.258 18.418 21.0858 18.5943C20.9136 18.7707 20.7033 18.9051 20.471 18.9873L19.305 19.3653C19.0696 19.449 18.8657 19.6032 18.7212 19.8071C18.5768 20.011 18.4988 20.2545 18.498 20.5043C18.4983 20.7564 18.5779 21.002 18.7256 21.2063C18.8734 21.4106 19.0817 21.5631 19.321 21.6423L20.465 22.0143C20.7031 22.0933 20.9194 22.227 21.0965 22.4047C21.2736 22.5823 21.4067 22.799 21.485 23.0373L21.864 24.2003C21.9467 24.4353 22.1005 24.6387 22.304 24.7823" fill="#F8F8F8"/>
</svg>
    